<svg width="50" height="50" viewBox="0 0 50 50" fill="none" xmlns="http://www.w3.org/2000/svg">
<path d="M25 33.3332C13 33.3332 10.875 21.3748 10.5 11.8873C10.3937 9.24984 10.3417 7.92901 11.3333 6.71026C12.3229 5.48942 13.5083 5.28942 15.8812 4.88942C18.8954 4.39541 21.9456 4.1536 25 4.16651C28.7166 4.16651 31.7771 4.49359 34.1187 4.88942C36.4917 5.28942 37.6771 5.48942 38.6687 6.71026C39.6604 7.93109 39.6062 9.24984 39.5021 11.8873C39.1271 21.3728 37.0021 33.3332 25.0021 33.3332H25Z" stroke="#2B788B" stroke-width="3"/>
<path d="M39.5833 10.417L41.5604 11.0753C43.6229 11.7628 44.6542 12.1066 45.2437 12.9253C45.8333 13.7441 45.8333 14.8316 45.8333 17.0045V17.1566C45.8333 18.9482 45.8333 19.8462 45.4021 20.5795C44.9708 21.3128 44.1854 21.7482 42.6187 22.6212L36.4583 26.042M10.4167 10.417L8.43957 11.0753C6.37707 11.7628 5.34582 12.1066 4.75624 12.9253C4.16666 13.7441 4.16666 14.8337 4.16666 17.0045V17.1566C4.16666 18.9482 4.16666 19.8462 4.59791 20.5795C5.02916 21.3128 5.81457 21.7482 7.38124 22.6212L13.5417 26.042" stroke="#2B788B" stroke-width="3"/>
<path d="M25 33.333V39.583" stroke="#2B788B" stroke-width="3" stroke-linecap="round"/>
<path d="M32.2916 45.8333H17.7083L18.4166 42.3C18.511 41.8279 18.766 41.403 19.1382 41.0977C19.5104 40.7923 19.9769 40.6253 20.4583 40.625H29.5416C30.0231 40.6253 30.4896 40.7923 30.8618 41.0977C31.234 41.403 31.4889 41.8279 31.5833 42.3L32.2916 45.8333Z" stroke="#2B788B" stroke-width="3" stroke-linecap="round" stroke-linejoin="round"/>
<path d="M37.5 45.833H12.5" stroke="#2B788B" stroke-width="3" stroke-linecap="round"/>
</svg>
