<svg width="50" height="50" viewBox="0 0 50 50" fill="none" xmlns="http://www.w3.org/2000/svg">
<g clip-path="url(#clip0_29_64)">
<path d="M12.6786 1.78613H3.75C2.76378 1.78613 1.96429 2.58562 1.96429 3.57185V46.429C1.96429 47.4152 2.76378 48.2147 3.75 48.2147H12.6786C13.6648 48.2147 14.4643 47.4152 14.4643 46.429V3.57185C14.4643 2.58562 13.6648 1.78613 12.6786 1.78613Z" stroke="#2B788B" stroke-width="3" stroke-linecap="round" stroke-linejoin="round"/>
<path d="M25.1786 8.92871H16.25C15.2638 8.92871 14.4643 9.7282 14.4643 10.7144V46.4287C14.4643 47.4149 15.2638 48.2144 16.25 48.2144H25.1786C26.1648 48.2144 26.9643 47.4149 26.9643 46.4287V10.7144C26.9643 9.7282 26.1648 8.92871 25.1786 8.92871Z" stroke="#2B788B" stroke-width="3" stroke-linecap="round" stroke-linejoin="round"/>
<path d="M37.1309 7.95156L30.2017 9.68563C29.245 9.92505 28.6635 10.8947 28.9029 11.8514L37.5732 46.4973C37.8126 47.454 38.7823 48.0355 39.739 47.7961L46.6682 46.062C47.6249 45.8226 48.2064 44.8529 47.967 43.8962L39.2967 9.25034C39.0572 8.29362 38.0876 7.71214 37.1309 7.95156Z" stroke="#2B788B" stroke-width="3" stroke-linecap="round" stroke-linejoin="round"/>
<path d="M1.96429 35.715H14.4643M14.4643 32.1436H26.9643M35.8929 39.2864L46.1786 36.715" stroke="#2B788B" stroke-width="3" stroke-linecap="round" stroke-linejoin="round"/>
</g>
<defs>
<clipPath id="clip0_29_64">
<rect width="50" height="50" fill="white"/>
</clipPath>
</defs>
</svg>
