<svg width="42" height="46" viewBox="0 0 42 46" fill="none" xmlns="http://www.w3.org/2000/svg">
<path d="M23.0833 4.24967C31.1667 4.24967 37.6667 10.7913 37.6667 18.833C37.6667 24.6663 34.2708 29.6455 29.3333 31.9788V41.7497H14.75V35.4997H12.6667C10.3542 35.4997 8.5 33.6455 8.5 31.333V25.083H5.375C4.5 25.083 4 24.0413 4.5 23.3955L8.5 18.1247C8.68356 14.3815 10.3005 10.8526 13.0156 8.26936C15.7307 5.68614 19.3357 4.24678 23.0833 4.24967ZM23.0833 0.0830078C13.5208 0.0830078 5.60417 7.20801 4.45833 16.5413L1.20834 20.9163H1.14584L1.10417 20.9788C-0.0416644 22.5622 -0.187498 24.6455 0.708335 26.3747C1.45834 27.8122 2.79167 28.8122 4.33334 29.1247V31.333C4.33334 35.1872 7 38.458 10.5833 39.3955V45.9163H33.5V34.458C38.7083 30.9788 41.8333 25.208 41.8333 18.833C41.8333 8.47884 33.4167 0.0830078 23.0833 0.0830078ZM32.1042 17.3747L28.0208 18.4372L31.0208 21.4788C31.75 22.1872 31.75 23.3955 31.0208 24.1247C30.2917 24.8538 29.0833 24.8538 28.375 24.1247L25.3542 21.1247L24.2708 25.208C24.0208 26.2288 23 26.7913 22.0417 26.5413C21.7991 26.4806 21.5709 26.3724 21.3703 26.2231C21.1698 26.0737 21.0007 25.8862 20.8729 25.6713C20.7451 25.4563 20.6611 25.2182 20.6257 24.9707C20.5903 24.7231 20.6042 24.471 20.6667 24.2288L21.7708 20.1455L17.6875 21.2497C17.4454 21.3121 17.1932 21.3261 16.9457 21.2907C16.6981 21.2553 16.46 21.1713 16.2451 21.0435C16.0301 20.9157 15.8426 20.7466 15.6933 20.546C15.5439 20.3454 15.4358 20.1172 15.375 19.8747C15.125 18.9372 15.7083 17.8955 16.7083 17.6455L20.7917 16.5622L17.7917 13.5413C17.4782 13.1834 17.3126 12.7196 17.3284 12.2441C17.3441 11.7686 17.5401 11.3168 17.8765 10.9804C18.213 10.6439 18.6647 10.448 19.1403 10.4322C19.6158 10.4165 20.0795 10.5821 20.4375 10.8955L23.4792 13.8955L24.5417 9.81217C24.7917 8.79134 25.8333 8.20801 26.8125 8.47884C27.8333 8.74967 28.4167 9.77051 28.1458 10.7705L27.0417 14.8747L31.1458 13.7705C32.1458 13.4997 33.1667 14.083 33.4375 15.1038C33.7083 16.083 33.125 17.1247 32.1042 17.3747Z" fill="#2B788B"/>
</svg>
