<svg width="50" height="50" viewBox="0 0 50 50" fill="none" xmlns="http://www.w3.org/2000/svg">
<path d="M41.3833 17.6357C41.6765 16.6069 41.7401 15.5262 41.5695 14.4701C41.3989 13.414 40.9984 12.4083 40.3962 11.5241C39.794 10.6399 39.0049 9.89881 38.0846 9.35326C37.1644 8.8077 36.1355 8.47101 35.0708 8.36699C34.6436 7.14119 33.8459 6.07852 32.7881 5.32605C31.7303 4.57358 30.4648 4.16854 29.1667 4.16699C27.6241 4.17222 26.1388 4.7515 25 5.79199C23.8612 4.7515 22.3759 4.17222 20.8333 4.16699C18.1229 4.16699 15.8125 5.89824 14.9479 8.36491C13.8813 8.46632 12.8501 8.8012 11.9274 9.3458C11.0047 9.8904 10.2132 10.6314 9.60899 11.5161C9.00476 12.4009 8.60263 13.4078 8.43114 14.4654C8.25964 15.523 8.32298 16.6054 8.61666 17.6357C7.27923 18.3473 6.15937 19.4077 5.37589 20.7043C4.59242 22.0009 4.17456 23.4854 4.16666 25.0003C4.16666 27.2399 5.05832 29.3462 6.60832 30.9003C6.37116 31.6897 6.25044 32.5094 6.24999 33.3337C6.24999 37.4107 9.19166 40.8128 13.1375 41.5295C13.7168 42.8097 14.6521 43.8963 15.832 44.6595C17.0119 45.4227 18.3865 45.8303 19.7917 45.8337C21.8312 45.8337 23.675 44.9857 25 43.6274C25.6763 44.325 26.4857 44.8798 27.3804 45.2588C28.2751 45.6377 29.2367 45.8332 30.2083 45.8337C31.611 45.8311 32.9834 45.4251 34.1617 44.6641C35.3401 43.9032 36.2747 42.8194 36.8542 41.542C38.0166 41.3371 39.1223 40.8879 40.0983 40.2242C41.0743 39.5604 41.8985 38.6972 42.5163 37.6915C43.1342 36.6858 43.5316 35.5605 43.6825 34.3898C43.8334 33.2192 43.7343 32.0298 43.3917 30.9003C44.1662 30.1255 44.7806 29.2056 45.1995 28.1933C45.6185 27.1809 45.8338 26.0959 45.8333 25.0003C45.8254 23.4854 45.4076 22.0009 44.6241 20.7043C43.8406 19.4077 42.7208 18.3473 41.3833 17.6357ZM19.7917 41.667C18.3104 41.667 17.0208 40.617 16.7292 39.1712L16.2875 37.5003H14.5833C12.2854 37.5003 10.4167 35.6316 10.4167 33.3337C10.4167 32.6003 10.5937 31.9128 10.9437 31.2899L11.8937 29.5899L10.2604 28.5274C9.67037 28.147 9.18493 27.625 8.84833 27.0089C8.51174 26.3929 8.33469 25.7023 8.33332 25.0003C8.33332 22.9649 9.83957 21.2003 11.8375 20.892L15.3646 20.3503L13.1583 17.5462C12.7654 17.0396 12.5376 16.4247 12.5056 15.7844C12.4736 15.1442 12.639 14.5096 12.9794 13.9664C13.3199 13.4233 13.8189 12.9978 14.4091 12.7475C14.9992 12.4972 15.652 12.4342 16.2792 12.567L18.75 12.9316V10.417C18.75 9.86446 18.9695 9.33455 19.3602 8.94385C19.7509 8.55315 20.2808 8.33366 20.8333 8.33366C21.3859 8.33366 21.9158 8.55315 22.3065 8.94385C22.6972 9.33455 22.9167 9.86446 22.9167 10.417V38.542C22.9167 40.2649 21.5146 41.667 19.7917 41.667ZM39.7396 28.5253L38.1062 29.5878L39.0562 31.2878C39.4062 31.9128 39.5833 32.6003 39.5833 33.3337C39.5833 35.6316 37.7146 37.5003 35.3125 37.5003H33.6083L33.2708 39.1712C33.1252 39.8759 32.7411 40.5089 32.1833 40.9635C31.6254 41.4181 30.9279 41.6666 30.2083 41.667C28.4854 41.667 27.0833 40.2649 27.0833 38.542V10.417C27.0833 9.26699 28.0167 8.33366 29.1667 8.33366C30.3167 8.33366 31.25 9.26699 31.25 10.5212V13.0357L33.7208 12.567C34.348 12.4342 35.0007 12.4972 35.5909 12.7475C36.1811 12.9978 36.6801 13.4233 37.0205 13.9664C37.361 14.5096 37.5264 15.1442 37.4944 15.7844C37.4624 16.4247 37.2346 17.0396 36.8417 17.5462L34.6354 20.3524L38.1625 20.8941C39.1385 21.0521 40.0266 21.5517 40.6685 22.3038C41.3103 23.0559 41.6641 24.0116 41.6667 25.0003C41.6667 26.4232 40.9458 27.7399 39.7396 28.5253Z" fill="#2B788B"/>
</svg>
