<svg width="50" height="50" viewBox="0 0 50 50" fill="none" xmlns="http://www.w3.org/2000/svg">
<g clip-path="url(#clip0_29_15)">
<path d="M25.6594 6.39594C25.4529 6.29981 25.2278 6.25 25 6.25C24.7722 6.25 24.5472 6.29981 24.3406 6.39594L0.903128 17.3334C0.627136 17.4623 0.39481 17.6689 0.234725 17.9281C0.0746402 18.1872 -0.00622464 18.4874 0.0020759 18.7919C0.0103764 19.0963 0.10748 19.3918 0.281446 19.6418C0.455411 19.8918 0.698652 20.0855 0.981253 20.1991L24.4188 29.5741C24.7918 29.7236 25.2082 29.7236 25.5813 29.5741L43.75 22.3116V40.6241C42.9212 40.6241 42.1263 40.9533 41.5403 41.5394C40.9542 42.1254 40.625 42.9203 40.625 43.7491V49.9991H50V43.7491C50 42.9203 49.6708 42.1254 49.0847 41.5394C48.4987 40.9533 47.7038 40.6241 46.875 40.6241V21.0584L49.0188 20.1991C49.3014 20.0855 49.5446 19.8918 49.7186 19.6418C49.8925 19.3918 49.9896 19.0963 49.9979 18.7919C50.0062 18.4874 49.9254 18.1872 49.7653 17.9281C49.6052 17.6689 49.3729 17.4623 49.0969 17.3334L25.6594 6.39594ZM25 26.4366L5.49375 18.6397L25 9.53657L44.5063 18.6397L25 26.4366Z" fill="#2B788B"/>
<path d="M13.05 28.2253C12.8488 28.1495 12.6341 28.1161 12.4194 28.127C12.2047 28.138 11.9945 28.1932 11.8021 28.2891C11.6097 28.385 11.4391 28.5196 11.3011 28.6845C11.1631 28.8493 11.0606 29.0409 11 29.2472L9.43749 34.5597C9.32805 34.9326 9.36153 35.333 9.53142 35.6826C9.7013 36.0322 9.99538 36.3059 10.3562 36.4503L24.4187 42.0753C24.7918 42.2248 25.2082 42.2248 25.5812 42.0753L39.6437 36.4503C40.0046 36.3059 40.2987 36.0322 40.4686 35.6826C40.6384 35.333 40.6719 34.9326 40.5625 34.5597L39 29.2472C38.9394 29.0409 38.8369 28.8493 38.6989 28.6845C38.5609 28.5196 38.3903 28.385 38.1979 28.2891C38.0055 28.1932 37.7953 28.138 37.5806 28.127C37.3659 28.1161 37.1512 28.1495 36.95 28.2253L25 32.7066L13.05 28.2253ZM12.8375 34.0784L13.525 31.7409L24.45 35.8378C24.8045 35.9711 25.1954 35.9711 25.55 35.8378L36.475 31.7409L37.1625 34.0784L25 38.9378L12.8375 34.0784Z" fill="#2B788B"/>
</g>
<defs>
<clipPath id="clip0_29_15">
<rect width="50" height="50" fill="white"/>
</clipPath>
</defs>
</svg>
