<svg width="54" height="54" viewBox="0 0 54 54" fill="none" xmlns="http://www.w3.org/2000/svg">
<path d="M32.8691 19.3075C35.0362 19.3075 36.7929 17.5855 36.7929 15.4614C36.7929 13.3372 35.0362 11.6152 32.8691 11.6152C30.702 11.6152 28.9453 13.3372 28.9453 15.4614C28.9453 17.5855 30.702 19.3075 32.8691 19.3075Z" stroke="#2B788B" stroke-width="3.5" stroke-linecap="round" stroke-linejoin="round"/>
<path d="M17.1738 38.5385C18.2573 38.5385 19.1357 37.6775 19.1357 36.6155C19.1357 35.5534 18.2573 34.6924 17.1738 34.6924C16.0902 34.6924 15.2119 35.5534 15.2119 36.6155C15.2119 37.6775 16.0902 38.5385 17.1738 38.5385Z" stroke="#2B788B" stroke-width="3.5" stroke-linecap="round" stroke-linejoin="round"/>
<path d="M17.1738 25.0771C19.3408 25.0771 21.0976 23.3551 21.0976 21.2309C21.0976 19.1067 19.3408 17.3848 17.1738 17.3848C15.0067 17.3848 13.2499 19.1067 13.2499 21.2309C13.2499 23.3551 15.0067 25.0771 17.1738 25.0771Z" stroke="#2B788B" stroke-width="3.5" stroke-linecap="round" stroke-linejoin="round"/>
<path d="M36.8714 47.3076C36.8277 46.5616 36.5632 45.8442 36.1102 45.2431C35.6573 44.642 35.0355 44.1833 34.3209 43.923C32.5462 43.3512 31.0377 42.1777 30.0668 40.6133C29.0959 39.0489 28.7261 37.1963 29.024 35.3886C29.3219 33.5809 30.268 31.9366 31.692 30.7515C33.1161 29.5663 34.9248 28.918 36.7929 28.923H44.1305C45.389 28.9265 46.6299 28.6332 47.7485 28.0679C48.867 27.5026 49.8305 26.6819 50.5576 25.6751C51.2847 24.6682 51.7542 23.5047 51.9263 22.2828C52.0984 21.0608 51.9681 19.8161 51.5465 18.6538C49.9859 14.3345 47.2441 10.5187 43.6208 7.62325C39.9975 4.72785 35.6321 2.86425 31.0014 2.23605C26.3708 1.60786 21.6531 2.23925 17.3637 4.06123C13.0743 5.88321 9.37836 8.82569 6.67955 12.5672C3.98074 16.3087 2.38292 20.7053 2.06068 25.2766C1.73843 29.848 2.70415 34.4182 4.85232 38.488C7.00049 42.5578 10.2485 45.9706 14.2414 48.3535C18.2344 50.7364 22.8187 51.9978 27.4935 51.9999C29.8021 52.0062 32.1002 51.6955 34.3209 51.0768C35.1365 50.8528 35.8429 50.3489 36.311 49.657C36.7792 48.9651 36.9781 48.1313 36.8714 47.3076Z" stroke="#2B788B" stroke-width="3.5" stroke-linecap="round" stroke-linejoin="round"/>
</svg>
