<svg width="50" height="50" viewBox="0 0 50 50" fill="none" xmlns="http://www.w3.org/2000/svg">
<path d="M34.7656 5.46875C30.8418 5.46875 27.3594 7.01758 25 9.67969C22.6406 7.01758 19.1582 5.46875 15.2344 5.46875C11.8168 5.47288 8.54046 6.83233 6.12389 9.24889C3.70733 11.6655 2.34788 14.9418 2.34375 18.3594C2.34375 32.4883 23.0098 43.7773 23.8887 44.252C24.2302 44.4359 24.6121 44.5322 25 44.5322C25.3879 44.5322 25.7698 44.4359 26.1113 44.252C26.9902 43.7773 47.6562 32.4883 47.6562 18.3594C47.6521 14.9418 46.2927 11.6655 43.8761 9.24889C41.4595 6.83233 38.1832 5.47288 34.7656 5.46875ZM33.6934 33.2734C30.9732 35.5817 28.0653 37.6592 25 39.4844C21.9347 37.6592 19.0268 35.5817 16.3066 33.2734C12.0742 29.6426 7.03125 24.1055 7.03125 18.3594C7.03125 16.1838 7.8955 14.0973 9.43389 12.5589C10.9723 11.0205 13.0588 10.1563 15.2344 10.1563C18.7109 10.1563 21.6211 11.9922 22.8301 14.9492C23.006 15.3803 23.3064 15.7492 23.6929 16.0088C24.0793 16.2685 24.5344 16.4072 25 16.4072C25.4656 16.4072 25.9207 16.2685 26.3071 16.0088C26.6936 15.7492 26.994 15.3803 27.1699 14.9492C28.3789 11.9922 31.2891 10.1563 34.7656 10.1563C36.9412 10.1563 39.0277 11.0205 40.5661 12.5589C42.1045 14.0973 42.9688 16.1838 42.9688 18.3594C42.9688 24.1055 37.9258 29.6426 33.6934 33.2734Z" fill="#2B788B"/>
</svg>
