<svg width="50" height="50" viewBox="0 0 50 50" fill="none" xmlns="http://www.w3.org/2000/svg">
<path d="M40.9312 32.3663H9.06875M40.9312 32.3663V16.6663C40.9312 12.7372 40.9313 10.7747 39.7104 9.55384C38.4917 8.33301 36.5271 8.33301 32.5979 8.33301H17.4021C13.4729 8.33301 11.5104 8.33301 10.2896 9.55384C9.06875 10.7747 9.06875 12.7372 9.06875 16.6663V32.3663M40.9312 32.3663L44.5646 36.1163L44.7479 36.308C45.4162 37.0421 45.8003 37.9908 45.8313 38.983L45.8333 39.2476C45.8333 39.5601 45.8333 39.7143 45.825 39.8455C45.7611 40.8578 45.3301 41.812 44.6129 42.5292C43.8957 43.2465 42.9415 43.6774 41.9292 43.7413C41.73 43.7498 41.5306 43.7526 41.3313 43.7497H8.66875C8.35625 43.7497 8.20208 43.7497 8.07083 43.7413C7.05854 43.6774 6.10433 43.2465 5.38711 42.5292C4.66988 41.812 4.23891 40.8578 4.175 39.8455C4.16666 39.7143 4.16666 39.558 4.16666 39.2497L4.16875 38.9851C4.19966 37.9928 4.58383 37.0442 5.25208 36.3101L5.43541 36.1184L9.06875 32.3663M19.7917 38.5413H30.2083" stroke="#2B788B" stroke-width="4" stroke-linecap="round"/>
<path d="M26.5625 14.0625C26.5625 14.4769 26.3979 14.8743 26.1049 15.1674C25.8118 15.4604 25.4144 15.625 25 15.625C24.5856 15.625 24.1882 15.4604 23.8951 15.1674C23.6021 14.8743 23.4375 14.4769 23.4375 14.0625C23.4375 13.6481 23.6021 13.2507 23.8951 12.9576C24.1882 12.6646 24.5856 12.5 25 12.5C25.4144 12.5 25.8118 12.6646 26.1049 12.9576C26.3979 13.2507 26.5625 13.6481 26.5625 14.0625Z" fill="#2B788B"/>
</svg>
