<svg width="42" height="40" viewBox="0 0 42 40" fill="none" xmlns="http://www.w3.org/2000/svg">
<path d="M37 12H5C3.34315 12 2 13.3431 2 15V35C2 36.6569 3.34315 38 5 38H37C38.6569 38 40 36.6569 40 35V15C40 13.3431 38.6569 12 37 12Z" stroke="#2B788B" stroke-width="4" stroke-linejoin="round"/>
<path d="M16 4H26V0H16V4ZM27 5V12H31V5H27ZM15 12V5H11V12H15ZM26 4C26.2652 4 26.5196 4.10536 26.7071 4.29289C26.8946 4.48043 27 4.73478 27 5H31C31 3.67392 30.4732 2.40215 29.5355 1.46447C28.5979 0.526784 27.3261 0 26 0V4ZM16 0C14.6739 0 13.4021 0.526784 12.4645 1.46447C11.5268 2.40215 11 3.67392 11 5H15C15 4.73478 15.1054 4.48043 15.2929 4.29289C15.4804 4.10536 15.7348 4 16 4V0Z" fill="#2B788B"/>
<path d="M15 25H27M21 19V31" stroke="#2B788B" stroke-width="4" stroke-linecap="round" stroke-linejoin="round"/>
</svg>
