<svg width="48" height="48" viewBox="0 0 48 48" fill="none" xmlns="http://www.w3.org/2000/svg">
<path d="M14.7692 27.6922C16.8084 27.6922 18.4615 26.0391 18.4615 23.9999C18.4615 21.9607 16.8084 20.3076 14.7692 20.3076C12.73 20.3076 11.0769 21.9607 11.0769 23.9999C11.0769 26.0391 12.73 27.6922 14.7692 27.6922Z" fill="#2B788B"/>
<path d="M24 27.6922C26.0392 27.6922 27.6923 26.0391 27.6923 23.9999C27.6923 21.9607 26.0392 20.3076 24 20.3076C21.9608 20.3076 20.3077 21.9607 20.3077 23.9999C20.3077 26.0391 21.9608 27.6922 24 27.6922Z" fill="#2B788B"/>
<path d="M33.2308 27.6922C35.27 27.6922 36.9231 26.0391 36.9231 23.9999C36.9231 21.9607 35.27 20.3076 33.2308 20.3076C31.1916 20.3076 29.5385 21.9607 29.5385 23.9999C29.5385 26.0391 31.1916 27.6922 33.2308 27.6922Z" fill="#2B788B"/>
<path fill-rule="evenodd" clip-rule="evenodd" d="M24 44.3077C35.2154 44.3077 44.3077 35.2154 44.3077 24C44.3077 12.7846 35.2154 3.69231 24 3.69231C12.7846 3.69231 3.69231 12.7846 3.69231 24C3.69231 35.2154 12.7846 44.3077 24 44.3077ZM24 48C37.2554 48 48 37.2554 48 24C48 10.7446 37.2554 0 24 0C10.7446 0 0 10.7446 0 24C0 37.2554 10.7446 48 24 48Z" fill="#2B788B"/>
</svg>
