<svg width="42" height="38" viewBox="0 0 42 38" fill="none" xmlns="http://www.w3.org/2000/svg">
<path fill-rule="evenodd" clip-rule="evenodd" d="M21 12.75C24.6521 12.75 27.9604 14.0417 30.475 15.8729C32.2521 17.1667 33.7438 18.8146 34.6479 20.5938L34.8771 21.0833H39.75C40.0822 21.0836 40.4095 21.1632 40.7046 21.3156C40.9998 21.4681 41.2542 21.6889 41.4466 21.9596C41.6391 22.2304 41.764 22.5432 41.811 22.8721C41.858 23.2009 41.8256 23.5362 41.7167 23.85L41.6125 24.1L35.3625 36.6C35.2089 36.9062 34.9822 37.1699 34.7024 37.3676C34.4225 37.5653 34.0983 37.6909 33.7583 37.7333L33.5 37.75H8.5C8.1571 37.75 7.81948 37.6655 7.51712 37.5037C7.21475 37.342 6.95697 37.1082 6.76666 36.8229L6.6375 36.5979L0.387495 24.0979C0.238828 23.8007 0.163403 23.4723 0.167518 23.14C0.171633 22.8078 0.255168 22.4813 0.411149 22.1879C0.567131 21.8945 0.791033 21.6426 1.06417 21.4534C1.3373 21.2641 1.65174 21.143 1.98125 21.1L2.25 21.0833H7.12083C7.9875 19.1167 9.58541 17.2854 11.525 15.8729C14.0396 14.0417 17.3479 12.75 21 12.75ZM36.3792 25.25H5.62083L9.7875 33.5833H32.2125L36.3792 25.25ZM21 16.9167C18.4731 16.9359 16.0162 17.7492 13.9771 19.2417C13.1771 19.825 12.5167 20.4542 11.9979 21.0833H30.0021C29.4222 20.3888 28.7573 19.7701 28.0229 19.2417C25.9838 17.7492 23.5269 16.9359 21 16.9167ZM21 0.25C22.6576 0.25 24.2473 0.90848 25.4194 2.08058C26.5915 3.25269 27.25 4.8424 27.25 6.5C27.25 8.1576 26.5915 9.74732 25.4194 10.9194C24.2473 12.0915 22.6576 12.75 21 12.75C19.3424 12.75 17.7527 12.0915 16.5806 10.9194C15.4085 9.74732 14.75 8.1576 14.75 6.5C14.75 4.8424 15.4085 3.25269 16.5806 2.08058C17.7527 0.90848 19.3424 0.25 21 0.25ZM21 4.41667C20.4475 4.41667 19.9176 4.63616 19.5269 5.02686C19.1362 5.41756 18.9167 5.94747 18.9167 6.5C18.9167 7.05253 19.1362 7.58244 19.5269 7.97314C19.9176 8.36384 20.4475 8.58333 21 8.58333C21.5525 8.58333 22.0824 8.36384 22.4731 7.97314C22.8638 7.58244 23.0833 7.05253 23.0833 6.5C23.0833 5.94747 22.8638 5.41756 22.4731 5.02686C22.0824 4.63616 21.5525 4.41667 21 4.41667Z" fill="#2B788B"/>
</svg>
