<svg width="50" height="50" viewBox="0 0 50 50" fill="none" xmlns="http://www.w3.org/2000/svg">
<path d="M25.0954 2.18662C23.4548 2.18662 21.9226 2.93369 20.6165 4.15703C19.3106 5.38066 18.1927 7.08477 17.2607 9.14893C17.0654 9.58135 16.8789 10.0308 16.7006 10.4943C16.2197 10.418 15.7368 10.3553 15.2523 10.3063C14.6889 10.2501 14.1391 10.2152 13.6049 10.2027C12.0014 10.1646 10.5358 10.3272 9.25136 10.7166C7.53886 11.2358 6.12577 12.1896 5.30546 13.6102C4.48515 15.0311 4.36601 16.7316 4.77255 18.4744C5.17929 20.2171 6.09599 22.0373 7.41776 23.8766C7.69511 24.2623 7.9914 24.6492 8.30409 25.036C7.99817 25.4137 7.70301 25.7999 7.41894 26.1942C6.09706 28.0334 5.18036 29.8536 4.77372 31.5964C4.36708 33.3392 4.48632 35.0397 5.30663 36.4604C6.12694 37.8812 7.54003 38.8349 9.25253 39.3539C10.9651 39.8732 12.9999 39.9894 15.2535 39.7643C15.726 39.717 16.2086 39.6539 16.6996 39.5766C16.8739 40.0311 17.061 40.4805 17.2607 40.9244C18.1927 42.9889 19.3105 44.6927 20.6165 45.9162C21.9225 47.1396 23.4549 47.8869 25.0954 47.8869C26.7358 47.8869 28.2683 47.1396 29.5742 45.9162C30.8801 44.6926 31.998 42.9888 32.93 40.9244C33.1297 40.4806 33.3168 40.0312 33.4911 39.5768C33.9815 39.6539 34.4638 39.7171 34.9358 39.7643C37.1895 39.9893 39.2244 39.8731 40.9368 39.3539C42.6495 38.8348 44.0626 37.8811 44.8829 36.4604C45.7032 35.0395 45.8224 33.3391 45.4158 31.5964C45.0091 29.8537 44.0923 28.0335 42.7706 26.1942C42.4864 25.8 42.1912 25.4137 41.8853 25.036C42.1917 24.6581 42.4873 24.2715 42.7717 23.8767C44.0934 22.0374 45.0102 20.2172 45.4168 18.4745C45.8234 16.7317 45.7042 15.0312 44.8839 13.6103C44.0636 12.1896 42.6505 11.2359 40.938 10.7167C39.6536 10.3273 38.188 10.1647 36.5847 10.2027C36.0501 10.2152 35.5002 10.2501 34.9368 10.3063C34.4642 10.3535 33.981 10.4169 33.4898 10.4942C33.3157 10.0406 33.1289 9.59202 32.9296 9.14893C31.9976 7.08447 30.8798 5.38037 29.5738 4.15693C28.2679 2.9335 26.7358 2.18662 25.0954 2.18662ZM25.0954 4.01152C26.1896 4.01152 27.2626 4.49229 28.3265 5.48906C29.3902 6.48564 30.4062 7.99424 31.2666 9.8999C31.4065 10.2108 31.5396 10.5248 31.6656 10.8416C29.5741 11.3066 27.359 12.0201 25.0948 12.9734C22.8311 12.0203 20.6163 11.307 18.5252 10.842C18.6543 10.5188 18.7869 10.2037 18.9242 9.8998C19.7846 7.99404 20.8006 6.48545 21.8644 5.48867C22.9283 4.49209 24.001 4.01152 25.0954 4.01152ZM13.0261 12.0249C13.2022 12.0231 13.3812 12.0243 13.563 12.0284C14.0474 12.0392 14.551 12.0704 15.0711 12.1225C15.4037 12.1557 15.7436 12.1981 16.0891 12.2482C15.4459 14.2919 14.9562 16.5668 14.6494 19.0041C12.6916 20.4885 10.966 22.0504 9.51757 23.6294C9.30559 23.3613 9.09958 23.0885 8.8997 22.8112C7.67948 21.1134 6.88114 19.4792 6.5498 18.0595C6.21855 16.6397 6.33886 15.4703 6.88593 14.5227C7.433 13.575 8.38593 12.8862 9.78085 12.4633C10.6964 12.1856 11.7927 12.0361 13.0261 12.0249ZM37.1636 12.0249C38.397 12.0361 39.4932 12.1857 40.4087 12.4634C41.8038 12.8862 42.7563 13.575 43.3035 14.5227C43.8506 15.4703 43.971 16.6398 43.6397 18.0595C43.3087 19.4791 42.5099 21.1134 41.2898 22.8112C41.09 23.0885 40.884 23.3614 40.6722 23.6296C39.2239 22.0508 37.4988 20.4893 35.5416 19.0051C35.235 16.5674 34.7447 14.2922 34.1016 12.2482C34.4466 12.1981 34.7861 12.1555 35.1185 12.1225C35.6198 12.0717 36.1229 12.0403 36.6267 12.0283C36.8056 12.0243 36.9846 12.0232 37.1636 12.0249ZM32.2886 12.5757C32.7739 14.0833 33.1758 15.7468 33.4757 17.5269C32.5068 16.8724 31.5151 16.2524 30.5024 15.668C29.4905 15.0834 28.4583 14.5348 27.4077 14.0231C29.0991 13.3928 30.7404 12.909 32.2886 12.5757ZM17.9021 12.576C19.45 12.9094 21.0911 13.393 22.782 14.0232C21.7314 14.5349 20.6992 15.0835 19.6873 15.668C18.6751 16.2521 17.6838 16.8718 16.7152 17.5258C17.015 15.7462 17.4168 14.0832 17.9021 12.576ZM25.0948 14.9646C26.5799 15.6197 28.0873 16.3811 29.5899 17.2486C31.0932 18.1166 32.5069 19.0416 33.817 20.0006C33.9924 21.6145 34.0867 23.3012 34.0867 25.0367C34.0867 26.7713 33.9927 28.4572 33.8174 30.0705C32.5073 31.0293 31.0937 31.9541 29.591 32.8219C28.0881 33.6896 26.5803 34.4512 25.0949 35.1063C23.6094 34.4512 22.1016 33.6896 20.5986 32.8219C19.0962 31.9544 17.6832 31.0299 16.3736 30.0715C16.1983 28.4579 16.1041 26.7717 16.1041 25.0366C16.1041 23.3008 16.1983 21.614 16.3738 19.9998C17.6837 19.0411 19.097 18.1162 20.5997 17.2486C22.1024 16.3812 23.6099 15.6195 25.0948 14.9646ZM25.2183 17.7104L19.9934 20.9347L25.2183 24.1593L30.4431 20.9347L25.2183 17.7104ZM14.4018 21.532C14.3197 22.6984 14.2788 23.8672 14.2791 25.0364C14.2791 26.2276 14.3211 27.397 14.4019 28.5388C13.0103 27.3894 11.7708 26.2097 10.7079 25.0355C11.7708 23.8615 13.0102 22.6816 14.4018 21.532ZM35.7891 21.533C37.18 22.6824 38.4192 23.8618 39.4817 25.0356C38.4192 26.2095 37.18 27.3889 35.7891 28.538C35.8711 27.3726 35.912 26.2048 35.9117 25.0365C35.9117 23.8447 35.8698 22.6752 35.7891 21.533ZM18.8164 22.3527V28.7197L24.3037 32.1062V25.7395L18.8164 22.3527ZM31.615 22.3561L26.129 25.7418V32.1055L31.6151 28.7197L31.615 22.3561ZM9.51737 26.442C10.966 28.0211 12.6914 29.5826 14.649 31.067C14.9557 33.504 15.4455 35.7787 16.0885 37.8224C15.7437 37.8722 15.4043 37.9148 15.0723 37.948C12.9918 38.1558 11.177 38.0301 9.78202 37.6072C8.3869 37.1844 7.43437 36.4953 6.8872 35.5477C6.34013 34.5999 6.21972 33.4305 6.55097 32.0108C6.88222 30.5912 7.68065 28.9569 8.90087 27.2591C9.10033 26.9822 9.30582 26.7098 9.51737 26.442ZM40.6721 26.4423C40.8876 26.7157 41.0939 26.9882 41.2886 27.2591C42.5087 28.9568 43.3071 30.5911 43.6384 32.0107C43.9696 33.4304 43.8495 34.5998 43.3024 35.5476C42.7552 36.4952 41.8024 37.1843 40.4073 37.6071C39.0124 38.03 37.1979 38.1557 35.1175 37.9479C34.7782 37.9135 34.4398 37.8717 34.1023 37.8225C34.7454 35.7783 35.2351 33.5031 35.5418 31.0656C37.4988 29.5816 39.2239 28.0207 40.6721 26.4423ZM33.4761 32.5441C33.1763 34.324 32.7745 35.9875 32.2892 37.495C30.7409 37.1617 29.0994 36.6778 27.4079 36.0476C28.4588 35.5357 29.4914 34.9869 30.5036 34.4022C31.516 33.818 32.5073 33.1983 33.4761 32.5441ZM16.7148 32.5451C17.683 33.1989 18.674 33.8184 19.6859 34.4022C20.6982 34.9868 21.7307 35.5356 22.7816 36.0476C21.0906 36.6777 19.4496 37.1615 17.9015 37.4948C17.4161 35.9876 17.0146 34.3245 16.7148 32.5451ZM25.1494 32.6281L25.2158 32.6691L25.2819 32.6281H25.1494ZM25.0947 37.0976C27.3594 38.0507 29.5746 38.7641 31.6664 39.229C31.5401 39.5467 31.4068 39.8616 31.2666 40.1733C30.4062 42.0789 29.3902 43.5874 28.3264 44.5842C27.2626 45.5809 26.1896 46.0617 25.0954 46.0617C24.0011 46.0617 22.9281 45.5809 21.8643 44.5842C20.8006 43.5875 19.7846 42.0789 18.9242 40.1732C18.784 39.8614 18.6507 39.5466 18.5243 39.2289C20.6157 38.7639 22.8306 38.0506 25.0947 37.0976Z" fill="#2B788B" stroke="#2B788B" stroke-width="1.2"/>
</svg>
