<svg width="50" height="50" viewBox="0 0 50 50" fill="none" xmlns="http://www.w3.org/2000/svg">
<path d="M42.4583 17.8538L39.8958 21.708C41.1316 24.1728 41.7366 26.9056 41.6566 29.6616C41.5766 32.4176 40.8142 35.1108 39.4375 37.4997H10.5625C8.77326 34.3957 8.03186 30.7978 8.44821 27.2394C8.86455 23.681 10.4165 20.3514 12.8739 17.7443C15.3313 15.1372 18.5635 13.3914 22.0911 12.7657C25.6188 12.14 29.2542 12.6677 32.4583 14.2705L36.3125 11.708C32.3885 9.1918 27.734 8.06428 23.0935 8.5058C18.453 8.94732 14.0947 10.9324 10.7156 14.1435C7.33654 17.3545 5.132 21.6061 4.45462 26.218C3.77723 30.83 4.66614 35.5359 6.97916 39.583C7.34273 40.2128 7.86477 40.7364 8.4934 41.1019C9.12203 41.4674 9.83536 41.662 10.5625 41.6663H39.4167C40.1509 41.6693 40.8728 41.4781 41.5094 41.1123C42.146 40.7464 42.6746 40.2189 43.0417 39.583C44.9612 36.2579 45.9245 32.4669 45.8253 28.6288C45.726 24.7906 44.568 21.0545 42.4792 17.833L42.4583 17.8538Z" fill="#2B788B"/>
<path d="M22.0625 32.1045C22.4495 32.4919 22.909 32.7992 23.4148 33.0089C23.9207 33.2186 24.4629 33.3265 25.0104 33.3265C25.558 33.3265 26.1002 33.2186 26.606 33.0089C27.1118 32.7992 27.5714 32.4919 27.9583 32.1045L39.75 14.417L22.0625 26.2087C21.6751 26.5956 21.3678 27.0552 21.1581 27.561C20.9484 28.0668 20.8405 28.609 20.8405 29.1566C20.8405 29.7041 20.9484 30.2463 21.1581 30.7522C21.3678 31.258 21.6751 31.7175 22.0625 32.1045Z" fill="#2B788B"/>
</svg>
