<svg width="50" height="50" viewBox="0 0 50 50" fill="none" xmlns="http://www.w3.org/2000/svg">
<path d="M27.0833 2.08301L27.0854 8.46217C30.7567 8.92632 34.1693 10.5985 36.7857 13.2153C39.4022 15.8322 41.0739 19.245 41.5375 22.9163H47.9166V27.083L41.5375 27.0851C41.0734 30.7561 39.4016 34.1684 36.7851 36.7848C34.1687 39.4013 30.7564 41.0731 27.0854 41.5372L27.0833 47.9163H22.9166V41.5372C19.2453 41.0736 15.8325 39.4019 13.2156 36.7854C10.5988 34.169 8.92663 30.7564 8.46248 27.0851L2.08331 27.083V22.9163H8.46248C8.9262 19.2447 10.5982 15.8316 13.2151 13.2147C15.8319 10.5979 19.245 8.92589 22.9166 8.46217V2.08301H27.0833ZM25 12.4997C21.6848 12.4997 18.5054 13.8166 16.1611 16.1608C13.8169 18.505 12.5 21.6845 12.5 24.9997C12.5 28.3149 13.8169 31.4943 16.1611 33.8385C18.5054 36.1827 21.6848 37.4997 25 37.4997C28.3152 37.4997 31.4946 36.1827 33.8388 33.8385C36.183 31.4943 37.5 28.3149 37.5 24.9997C37.5 21.6845 36.183 18.505 33.8388 16.1608C31.4946 13.8166 28.3152 12.4997 25 12.4997ZM25 20.833C26.105 20.833 27.1649 21.272 27.9463 22.0534C28.7277 22.8348 29.1666 23.8946 29.1666 24.9997C29.1666 26.1047 28.7277 27.1645 27.9463 27.946C27.1649 28.7274 26.105 29.1663 25 29.1663C23.8949 29.1663 22.8351 28.7274 22.0537 27.946C21.2723 27.1645 20.8333 26.1047 20.8333 24.9997C20.8333 23.8946 21.2723 22.8348 22.0537 22.0534C22.8351 21.272 23.8949 20.833 25 20.833Z" fill="#2B788B"/>
</svg>
